<?xml version="1.0" encoding="UTF-8" standalone="no"?>
<!-- Created with Inkscape (http://www.inkscape.org/) -->

<svg
   xmlns:dc="http://purl.org/dc/elements/1.1/"
   xmlns:cc="http://creativecommons.org/ns#"
   xmlns:rdf="http://www.w3.org/1999/02/22-rdf-syntax-ns#"
   xmlns:svg="http://www.w3.org/2000/svg"
   xmlns="http://www.w3.org/2000/svg"
   xmlns:xlink="http://www.w3.org/1999/xlink"
   xmlns:sodipodi="http://sodipodi.sourceforge.net/DTD/sodipodi-0.dtd"
   xmlns:inkscape="http://www.inkscape.org/namespaces/inkscape"
   width="100mm"
   height="29.124001mm"
   viewBox="0 0 100 29.124001"
   version="1.1"
   id="svg8"
   inkscape:version="0.92.1 r15371"
   sodipodi:docname="grocerify-green.svg">
  <defs
     id="defs2">
    <linearGradient
       inkscape:collect="always"
       id="linearGradient4577">
      <stop
         style="stop-color:#1d9b57;stop-opacity:1"
         offset="0"
         id="stop4573" />
      <stop
         style="stop-color:#05614b;stop-opacity:1"
         offset="1"
         id="stop4575" />
    </linearGradient>
    <linearGradient
       inkscape:collect="always"
       xlink:href="#linearGradient4577"
       id="linearGradient4579"
       x1="3.3008244"
       y1="46.259033"
       x2="374.09341"
       y2="46.259033"
       gradientUnits="userSpaceOnUse" />
  </defs>
  <sodipodi:namedview
     id="base"
     pagecolor="#ffffff"
     bordercolor="#666666"
     borderopacity="1.0"
     inkscape:pageopacity="0.0"
     inkscape:pageshadow="2"
     inkscape:zoom="1.8177278"
     inkscape:cx="200.20413"
     inkscape:cy="60.918086"
     inkscape:document-units="mm"
     inkscape:current-layer="text4487"
     showgrid="false"
     inkscape:window-width="1920"
     inkscape:window-height="1017"
     inkscape:window-x="1912"
     inkscape:window-y="-8"
     inkscape:window-maximized="1" />
  <metadata
     id="metadata5">
    <rdf:RDF>
      <cc:Work
         rdf:about="">
        <dc:format>image/svg+xml</dc:format>
        <dc:type
           rdf:resource="http://purl.org/dc/dcmitype/StillImage" />
        <dc:title></dc:title>
      </cc:Work>
    </rdf:RDF>
  </metadata>
  <g
     inkscape:label="Camada 1"
     inkscape:groupmode="layer"
     id="layer1"
     transform="translate(0,-267.876)">
    <g
       aria-label="GROCERIFY"
       style="font-style:italic;font-variant:normal;font-weight:800;font-stretch:normal;font-size:61.47742462px;line-height:1.25;font-family:'Open Sans';-inkscape-font-specification:'Open Sans Ultra-Bold Italic';letter-spacing:0px;word-spacing:0px;fill:#ffffff;fill-opacity:1;stroke:none;stroke-width:1.53693557"
       id="text4487">
      <path
         style="opacity:1;fill:url(#linearGradient4579);fill-opacity:1;stroke:none;stroke-width:5.07650852;stroke-miterlimit:4;stroke-dasharray:none;stroke-dashoffset:0;stroke-opacity:1;paint-order:markers stroke fill"
         d="M 0 0 L 0 110.07422 L 377.95312 110.07422 L 377.95312 0 L 0 0 z M 8.4921875 8.4921875 L 369.46094 8.4921875 L 369.46094 101.58398 L 8.4921875 101.58398 L 8.4921875 8.4921875 z M 18.222656 18.222656 L 18.222656 91.853516 L 359.73047 91.853516 L 359.73047 18.222656 L 18.222656 18.222656 z "
         id="rect4497"
         transform="matrix(0.26458333,0,0,0.26458333,0,267.876)" />
      <path
         inkscape:connector-curvature="0"
         d="m 13.209079,281.52808 h 4.494335 l -1.230416,5.85737 q -1.841941,0.59679 -3.838604,0.59679 -1.922986,0 -2.9839442,-1.1199 -1.0609578,-1.1199 -1.0609578,-3.1755 0,-1.9672 0.8104539,-3.55126 0.8104541,-1.58407 2.2176961,-2.40926 1.414611,-0.83256 3.286022,-0.83256 1.959825,0 3.300758,0.78835 l -1.083061,2.27664 q -1.127268,-0.6631 -2.254535,-0.6631 -0.972545,0 -1.724057,0.53785 -0.744144,0.53048 -1.193577,1.5767 -0.442066,1.04622 -0.442066,2.23243 0,1.94509 1.539862,1.94509 0.464169,0 0.979913,-0.10315 l 0.375756,-1.70932 h -1.687218 z"
         style="font-style:italic;font-variant:normal;font-weight:800;font-stretch:normal;font-size:61.47858429px;font-family:'Open Sans';-inkscape-font-specification:'Open Sans Ultra-Bold Italic';font-variant-ligatures:normal;font-variant-caps:normal;font-variant-numeric:normal;font-feature-settings:normal;text-align:start;writing-mode:lr-tb;text-anchor:start;fill:#ffffff;stroke-width:0.3772223"
         id="path4503" />
      <path
         inkscape:connector-curvature="0"
         d="m 22.330369,283.91524 -0.832557,3.91965 h -2.880795 l 2.276638,-10.77167 h 2.851324 q 1.856676,0 2.843957,0.73678 0.98728,0.73677 0.98728,2.21769 0,1.14937 -0.523111,2.00403 -0.523111,0.85466 -1.554598,1.3041 l 1.650379,3.80176 0.29471,0.70731 h -3.138667 l -1.436713,-3.91965 z m 0.464169,-2.18823 h 0.375756 q 0.699937,0 1.112532,-0.39786 0.412595,-0.40522 0.412595,-1.12726 0,-0.45681 -0.257872,-0.69257 -0.250504,-0.24314 -0.736776,-0.24314 h -0.390492 z"
         style="font-style:italic;font-variant:normal;font-weight:800;font-stretch:normal;font-size:61.47858429px;font-family:'Open Sans';-inkscape-font-specification:'Open Sans Ultra-Bold Italic';font-variant-ligatures:normal;font-variant-caps:normal;font-variant-numeric:normal;font-feature-settings:normal;text-align:start;writing-mode:lr-tb;text-anchor:start;fill:#ffffff;stroke-width:0.3772223"
         id="path4505" />
      <path
         inkscape:connector-curvature="0"
         d="m 34.796623,276.89376 q 1.915618,0 2.976575,1.0978 1.068327,1.09043 1.068327,3.05025 0,1.95983 -0.736777,3.5881 -0.729408,1.62091 -2.018766,2.4903 -1.289359,0.86203 -2.991312,0.86203 -1.981928,0 -3.064989,-1.09779 -1.075694,-1.0978 -1.075694,-3.05026 0,-1.95246 0.75888,-3.5881 0.758879,-1.63564 2.062973,-2.4903 1.311462,-0.86203 3.020783,-0.86203 z m 1.134635,4.17752 q 0,-0.83992 -0.353652,-1.31146 -0.353653,-0.47891 -1.024119,-0.47891 -0.729409,0 -1.340933,0.6189 -0.611524,0.61889 -0.979912,1.70195 -0.361021,1.08306 -0.361021,2.2177 0,1.783 1.473553,1.783 0.699937,0 1.296726,-0.61153 0.604157,-0.61152 0.943073,-1.65038 0.346285,-1.03885 0.346285,-2.26927 z"
         style="font-style:italic;font-variant:normal;font-weight:800;font-stretch:normal;font-size:61.47858429px;font-family:'Open Sans';-inkscape-font-specification:'Open Sans Ultra-Bold Italic';font-variant-ligatures:normal;font-variant-caps:normal;font-variant-numeric:normal;font-feature-settings:normal;text-align:start;writing-mode:lr-tb;text-anchor:start;fill:#ffffff;stroke-width:0.3772223"
         id="path4507" />
      <path
         inkscape:connector-curvature="0"
         d="m 45.789321,279.29565 q -0.795717,0 -1.436713,0.57469 -0.640995,0.57468 -1.009383,1.58406 -0.361019,1.00939 -0.361019,2.18823 0,0.98728 0.412593,1.47355 0.412596,0.48628 1.186209,0.48628 0.611526,0 1.237785,-0.14736 0.62626,-0.15472 1.473553,-0.51574 v 2.37978 q -1.495657,0.6631 -3.241815,0.6631 -1.915619,0 -2.954474,-1.09043 -1.031485,-1.09779 -1.031485,-3.10183 0,-1.95982 0.744143,-3.59546 0.751512,-1.63564 2.033503,-2.4682 1.289359,-0.83256 2.947103,-0.83256 1.952459,0 3.543896,0.96518 l -1.090429,2.24716 q -0.685202,-0.40522 -1.259887,-0.60415 -0.574686,-0.2063 -1.19358,-0.2063 z"
         style="font-style:italic;font-variant:normal;font-weight:800;font-stretch:normal;font-size:61.47858429px;font-family:'Open Sans';-inkscape-font-specification:'Open Sans Ultra-Bold Italic';font-variant-ligatures:normal;font-variant-caps:normal;font-variant-numeric:normal;font-feature-settings:normal;text-align:start;writing-mode:lr-tb;text-anchor:start;fill:#ffffff;stroke-width:0.3772223"
         id="path4509" />
      <path
         inkscape:connector-curvature="0"
         d="m 55.455828,287.83489 h -6.395217 l 2.276638,-10.77167 h 6.395217 l -0.478903,2.33558 h -3.514424 l -0.346285,1.69459 h 3.271287 l -0.53048,2.33558 h -3.271285 l -0.419964,2.0335 h 3.514424 z"
         style="font-style:italic;font-variant:normal;font-weight:800;font-stretch:normal;font-size:61.47858429px;font-family:'Open Sans';-inkscape-font-specification:'Open Sans Ultra-Bold Italic';font-variant-ligatures:normal;font-variant-caps:normal;font-variant-numeric:normal;font-feature-settings:normal;text-align:start;writing-mode:lr-tb;text-anchor:start;fill:#ffffff;stroke-width:0.3772223"
         id="path4511" />
      <path
         inkscape:connector-curvature="0"
         d="m 61.261626,283.91524 -0.832558,3.91965 h -2.880793 l 2.276638,-10.77167 h 2.851324 q 1.856676,0 2.843956,0.73678 0.987281,0.73677 0.987281,2.21769 0,1.14937 -0.523112,2.00403 -0.523111,0.85466 -1.554599,1.3041 l 1.650379,3.80176 0.294712,0.70731 h -3.138668 l -1.436712,-3.91965 z m 0.46417,-2.18823 h 0.375755 q 0.699938,0 1.112531,-0.39786 0.412596,-0.40522 0.412596,-1.12726 0,-0.45681 -0.257872,-0.69257 -0.250504,-0.24314 -0.736775,-0.24314 h -0.390492 z"
         style="font-style:italic;font-variant:normal;font-weight:800;font-stretch:normal;font-size:61.47858429px;font-family:'Open Sans';-inkscape-font-specification:'Open Sans Ultra-Bold Italic';font-variant-ligatures:normal;font-variant-caps:normal;font-variant-numeric:normal;font-feature-settings:normal;text-align:start;writing-mode:lr-tb;text-anchor:start;fill:#ffffff;stroke-width:0.3772223"
         id="path4513" />
      <path
         inkscape:connector-curvature="0"
         d="m 67.347397,287.83489 2.276638,-10.77167 h 2.925002 l -2.276638,10.77167 z"
         style="font-style:italic;font-variant:normal;font-weight:800;font-stretch:normal;font-size:61.47858429px;font-family:'Open Sans';-inkscape-font-specification:'Open Sans Ultra-Bold Italic';font-variant-ligatures:normal;font-variant-caps:normal;font-variant-numeric:normal;font-feature-settings:normal;text-align:start;writing-mode:lr-tb;text-anchor:start;fill:#ffffff;stroke-width:0.3772223"
         id="path4515" />
      <path
         inkscape:connector-curvature="0"
         d="m 75.606659,287.83489 h -2.880796 l 2.276638,-10.77167 h 6.351011 l -0.49364,2.33558 h -3.470215 l -0.427329,2.0556 h 3.212343 l -0.508376,2.35032 h -3.227079 z"
         style="font-style:italic;font-variant:normal;font-weight:800;font-stretch:normal;font-size:61.47858429px;font-family:'Open Sans';-inkscape-font-specification:'Open Sans Ultra-Bold Italic';font-variant-ligatures:normal;font-variant-caps:normal;font-variant-numeric:normal;font-feature-settings:normal;text-align:start;writing-mode:lr-tb;text-anchor:start;fill:#ffffff;stroke-width:0.3772223"
         id="path4517" />
      <path
         inkscape:connector-curvature="0"
         d="m 85.89942,281.05654 2.298742,-3.99332 h 3.212346 l -4.50907,6.59414 -0.8915,4.17753 h -2.880796 l 0.884132,-4.17753 -1.746159,-6.59414 h 2.969208 z"
         style="font-style:italic;font-variant:normal;font-weight:800;font-stretch:normal;font-size:61.47858429px;font-family:'Open Sans';-inkscape-font-specification:'Open Sans Ultra-Bold Italic';font-variant-ligatures:normal;font-variant-caps:normal;font-variant-numeric:normal;font-feature-settings:normal;text-align:start;writing-mode:lr-tb;text-anchor:start;fill:#ffffff;stroke-width:0.3772223"
         id="path4519" />
    </g>
  </g>
</svg>
